<?xml version="1.0" encoding="UTF-8"?>
<!DOCTYPE svg PUBLIC "-//W3C//DTD SVG 1.1//EN" "http://www.w3.org/Graphics/SVG/1.1/DTD/svg11.dtd">
<svg xmlns="http://www.w3.org/2000/svg" version="1.1" width="500px" height="500px" style="shape-rendering:geometricPrecision; text-rendering:geometricPrecision; image-rendering:optimizeQuality; fill-rule:evenodd; clip-rule:evenodd" xmlns:xlink="http://www.w3.org/1999/xlink">
<g><path style="opacity:1" fill="#0a1a2a" d="M -0.5,-0.5 C 166.167,-0.5 332.833,-0.5 499.5,-0.5C 499.5,166.167 499.5,332.833 499.5,499.5C 332.833,499.5 166.167,499.5 -0.5,499.5C -0.5,332.833 -0.5,166.167 -0.5,-0.5 Z"/></g>
<g><path style="opacity:1" fill="#fbfbfc" d="M 386.5,171.5 C 387.779,170.032 389.446,169.365 391.5,169.5C 391.5,172.167 391.5,174.833 391.5,177.5C 391.5,193.5 391.5,209.5 391.5,225.5C 389.5,225.5 387.5,225.5 385.5,225.5C 386.518,207.718 380.518,192.885 367.5,181C 337.035,165.15 316.869,173.65 307,206.5C 304.42,214.644 302.92,222.978 302.5,231.5C 284.577,232.486 266.577,232.819 248.5,232.5C 248.5,232.167 248.5,231.833 248.5,231.5C 248.667,217.829 248.5,204.163 248,190.5C 247.487,191.527 246.987,192.527 246.5,193.5C 241.833,205.833 237.167,218.167 232.5,230.5C 231.833,230.5 231.5,230.833 231.5,231.5C 229.517,231.843 228.183,231.176 227.5,229.5C 235.024,209.617 242.691,189.784 250.5,170C 269.833,169.667 289.167,169.333 308.5,169C 334.935,161.347 358.935,165.847 380.5,182.5C 382.029,182.471 383.196,181.804 384,180.5C 385.549,177.688 386.382,174.688 386.5,171.5 Z"/></g>
<g><path style="opacity:1" fill="#818a92" d="M 391.5,177.5 C 391.5,174.833 391.5,172.167 391.5,169.5C 389.446,169.365 387.779,170.032 386.5,171.5C 386.5,170.5 386.5,169.5 386.5,168.5C 388.5,168.5 390.5,168.5 392.5,168.5C 392.81,171.713 392.477,174.713 391.5,177.5 Z"/></g>
<g><path style="opacity:1" fill="#fafafa" d="M 197.5,230.5 C 181.2,232.485 164.534,233.152 147.5,232.5C 147.672,231.508 147.338,230.842 146.5,230.5C 140.164,215.829 133.831,201.162 127.5,186.5C 127.217,185.711 126.717,185.044 126,184.5C 125.169,221.002 125.336,257.336 126.5,293.5C 126.316,301.382 127.483,309.049 130,316.5C 135.302,322.067 141.802,324.734 149.5,324.5C 149.5,326.167 149.5,327.833 149.5,329.5C 134.49,328.304 119.49,328.304 104.5,329.5C 104.5,327.833 104.5,326.167 104.5,324.5C 114.191,323.641 119.358,318.308 120,308.5C 120.667,266.167 120.667,223.833 120,181.5C 119.208,179.413 118.041,177.579 116.5,176C 112.56,174.844 108.56,174.01 104.5,173.5C 104.5,172.167 104.5,170.833 104.5,169.5C 126.843,169.167 149.177,169.5 171.5,170.5C 180.367,190.442 189.034,210.442 197.5,230.5 Z"/></g>
<g><path style="opacity:1" fill="#9fa6ac" d="M 127.5,186.5 C 126.502,221.996 126.168,257.663 126.5,293.5C 125.336,257.336 125.169,221.002 126,184.5C 126.717,185.044 127.217,185.711 127.5,186.5 Z"/></g>
<g><path style="opacity:1" fill="#3e4a57" d="M 248.5,231.5 C 248.167,231.5 247.833,231.5 247.5,231.5C 247.829,218.656 247.495,205.989 246.5,193.5C 246.987,192.527 247.487,191.527 248,190.5C 248.5,204.163 248.667,217.829 248.5,231.5 Z"/></g>
<g><path style="opacity:1" fill="#0d1c2c" d="M 246.5,193.5 C 247.495,205.989 247.829,218.656 247.5,231.5C 242.305,231.821 237.305,231.487 232.5,230.5C 237.167,218.167 241.833,205.833 246.5,193.5 Z"/></g>
<g><path style="opacity:1" fill="#878c91" d="M 232.5,230.5 C 237.305,231.487 242.305,231.821 247.5,231.5C 247.833,231.5 248.167,231.5 248.5,231.5C 248.5,231.833 248.5,232.167 248.5,232.5C 242.642,232.822 236.975,232.489 231.5,231.5C 231.5,230.833 231.833,230.5 232.5,230.5 Z"/></g>
<g><path style="opacity:1" fill="#7b8186" d="M 302.5,231.5 C 328.833,231.5 355.167,231.5 381.5,231.5C 381.828,243.012 381.495,254.346 380.5,265.5C 380.5,254.5 380.5,243.5 380.5,232.5C 354.328,232.831 328.328,232.498 302.5,231.5 Z"/></g>
<g><path style="opacity:1" fill="#6e757c" d="M 146.5,230.5 C 147.338,230.842 147.672,231.508 147.5,232.5C 141.167,232.5 134.833,232.5 128.5,232.5C 128.5,243.5 128.5,254.5 128.5,265.5C 127.505,254.346 127.172,243.012 127.5,231.5C 134.022,231.823 140.355,231.49 146.5,230.5 Z"/></g>
<g><path style="opacity:1" fill="#f9f3ef" d="M 227.5,229.5 C 228.183,231.176 229.517,231.843 231.5,231.5C 236.975,232.489 242.642,232.822 248.5,232.5C 266.577,232.819 284.577,232.486 302.5,231.5C 328.328,232.498 354.328,232.831 380.5,232.5C 380.5,243.5 380.5,254.5 380.5,265.5C 354.145,264.842 328.145,265.509 302.5,267.5C 284.736,265.534 266.736,264.868 248.5,265.5C 238.319,265.173 228.319,265.506 218.5,266.5C 218.167,266.5 217.833,266.5 217.5,266.5C 199.341,265.503 181.008,265.17 162.5,265.5C 151.167,265.5 139.833,265.5 128.5,265.5C 128.5,254.5 128.5,243.5 128.5,232.5C 134.833,232.5 141.167,232.5 147.5,232.5C 164.534,233.152 181.2,232.485 197.5,230.5C 207.68,232.15 217.68,231.816 227.5,229.5 Z"/></g>
<g><path style="opacity:1" fill="#34404c" d="M 167.5,240.5 C 173.795,240.984 175.961,244.317 174,250.5C 170.206,254.741 166.873,254.408 164,249.5C 163.333,247.833 163.333,246.167 164,244.5C 165.376,243.295 166.542,241.962 167.5,240.5 Z"/></g>
<g><path style="opacity:1" fill="#0c1c2c" d="M 259.5,241.5 C 260.482,244.962 260.815,248.629 260.5,252.5C 262.527,252.338 264.527,252.505 266.5,253C 264.19,253.497 261.857,253.663 259.5,253.5C 259.5,249.5 259.5,245.5 259.5,241.5 Z"/></g>
<g><path style="opacity:1" fill="#0a1a2a" d="M 272.5,241.5 C 273.482,244.962 273.815,248.629 273.5,252.5C 275.5,252.5 277.5,252.5 279.5,252.5C 277.393,253.468 275.059,253.802 272.5,253.5C 272.5,249.5 272.5,245.5 272.5,241.5 Z"/></g>
<g><path style="opacity:1" fill="#b6b7b7" d="M 272.5,241.5 C 272.56,240.957 272.893,240.624 273.5,240.5C 274.489,244.107 274.823,247.774 274.5,251.5C 276.415,251.216 278.081,251.549 279.5,252.5C 277.5,252.5 275.5,252.5 273.5,252.5C 273.815,248.629 273.482,244.962 272.5,241.5 Z"/></g>
<g><path style="opacity:1" fill="#122130" d="M 285.5,241.5 C 287.857,241.337 290.19,241.503 292.5,242C 290.527,242.495 288.527,242.662 286.5,242.5C 286.5,243.833 286.5,245.167 286.5,246.5C 294.5,246.833 294.5,247.167 286.5,247.5C 286.5,249.167 286.5,250.833 286.5,252.5C 288.527,252.338 290.527,252.505 292.5,253C 290.19,253.497 287.857,253.663 285.5,253.5C 285.5,249.5 285.5,245.5 285.5,241.5 Z"/></g>
<g><path style="opacity:1" fill="#122130" d="M 314.5,242.5 C 320.567,241.285 322.234,241.285 319.5,242.5C 319.167,257.167 318.833,257.167 318.5,242.5C 317.167,242.5 315.833,242.5 314.5,242.5 Z"/></g>
<g><path style="opacity:1" fill="#5c636d" d="M 329.5,240.5 C 330.8,242.223 331.467,244.39 331.5,247C 331.167,249.167 330.833,251.333 330.5,253.5C 329.508,249.217 329.174,244.884 329.5,240.5 Z"/></g>
<g><path style="opacity:1" fill="#878b91" d="M 355.5,241.5 C 354.517,245.298 354.183,249.298 354.5,253.5C 353.189,249.317 353.189,244.984 354.5,240.5C 355.107,240.624 355.44,240.957 355.5,241.5 Z"/></g>
<g><path style="opacity:1" fill="#efeae6" d="M 167.5,242.5 C 172.674,242.835 174.341,245.501 172.5,250.5C 168.479,253.602 166.146,252.602 165.5,247.5C 165.437,245.486 166.103,243.819 167.5,242.5 Z"/></g>
<g><path style="opacity:1" fill="#81868c" d="M 196.5,240.5 C 198.896,241.828 198.896,243.494 196.5,245.5C 195.948,243.997 195.948,242.331 196.5,240.5 Z"/></g>
<g><path style="opacity:1" fill="#323e4b" d="M 229.5,240.5 C 232.599,240.092 234.933,241.259 236.5,244C 234.406,242.906 232.073,242.572 229.5,243C 226.349,247.231 227.183,250.398 232,252.5C 233.605,251.899 234.938,250.899 236,249.5C 235.532,253.182 233.365,254.349 229.5,253C 225.536,248.88 225.536,244.714 229.5,240.5 Z"/></g>
<g><path style="opacity:1" fill="#323d4a" d="M 302.5,240.5 C 305.061,240.447 307.061,241.447 308.5,243.5C 306.341,242.494 303.841,242.494 301,243.5C 300.333,245.833 300.333,248.167 301,250.5C 303.632,253.192 305.966,252.859 308,249.5C 307.532,253.182 305.365,254.349 301.5,253C 297.4,248.445 297.733,244.278 302.5,240.5 Z"/></g>
<g><path style="opacity:1" fill="#404a56" d="M 144.5,241.5 C 145.675,241.281 146.675,241.614 147.5,242.5C 150.45,252.954 152.784,252.62 154.5,241.5C 155.5,241.5 156.5,241.5 157.5,241.5C 157.824,245.555 157.491,249.555 156.5,253.5C 155.682,250.893 155.182,248.226 155,245.5C 154.194,248.446 152.861,251.112 151,253.5C 149.289,251.044 147.956,248.377 147,245.5C 146.818,248.226 146.318,250.893 145.5,253.5C 144.509,249.555 144.176,245.555 144.5,241.5 Z"/></g>
<g><path style="opacity:1" fill="#303c49" d="M 180.5,241.5 C 182.017,241.511 183.184,242.177 184,243.5C 185.667,245.833 187.333,248.167 189,250.5C 189.333,247.5 189.667,244.5 190,241.5C 191.843,255.906 189.51,256.906 183,244.5C 182.821,247.553 182.321,250.553 181.5,253.5C 180.509,249.555 180.176,245.555 180.5,241.5 Z"/></g>
<g><path style="opacity:1" fill="#1f2c3b" d="M 355.5,241.5 C 357.645,244.433 359.812,247.433 362,250.5C 362.333,247.5 362.667,244.5 363,241.5C 363.667,245.5 363.667,249.5 363,253.5C 360.425,250.681 358.092,247.681 356,244.5C 355.819,247.695 355.319,250.695 354.5,253.5C 354.183,249.298 354.517,245.298 355.5,241.5 Z"/></g>
<g><path style="opacity:1" fill="#2d3946" d="M 245.5,240.5 C 252.109,241.258 254.276,244.925 252,251.5C 243.96,255.142 240.96,252.475 243,243.5C 244.045,242.627 244.878,241.627 245.5,240.5 Z"/></g>
<g><path style="opacity:1" fill="#efeae7" d="M 245.5,242.5 C 251.786,243.315 253.12,246.481 249.5,252C 246.783,253.033 244.949,252.2 244,249.5C 243.167,246.829 243.667,244.496 245.5,242.5 Z"/></g>
<g><path style="opacity:1" fill="#2d3946" d="M 340.5,240.5 C 347.109,241.258 349.276,244.925 347,251.5C 338.96,255.142 335.96,252.475 338,243.5C 339.045,242.627 339.878,241.627 340.5,240.5 Z"/></g>
<g><path style="opacity:1" fill="#efeae7" d="M 340.5,242.5 C 346.786,243.315 348.12,246.481 344.5,252C 341.783,253.033 339.949,252.2 339,249.5C 338.167,246.829 338.667,244.496 340.5,242.5 Z"/></g>
<g><path style="opacity:1" fill="#333e4b" d="M 206.5,240.5 C 209.061,240.447 211.061,241.447 212.5,243.5C 212.167,243.833 211.833,244.167 211.5,244.5C 209.821,242.896 207.821,242.229 205.5,242.5C 205.433,245.766 207.099,247.266 210.5,247C 213.446,250.491 212.612,252.658 208,253.5C 206.188,253.507 204.688,252.84 203.5,251.5C 203.833,251.167 204.167,250.833 204.5,250.5C 207.91,253.586 209.91,252.92 210.5,248.5C 206.116,248.601 203.95,246.601 204,242.5C 204.995,241.934 205.828,241.267 206.5,240.5 Z"/></g>
<g><path style="opacity:1" fill="#fcfcfd" d="M 162.5,265.5 C 181.008,265.17 199.341,265.503 217.5,266.5C 209.972,287.248 202.138,307.915 194,328.5C 192.644,329.38 191.144,329.714 189.5,329.5C 180.506,308.177 171.506,286.844 162.5,265.5 Z"/></g>
<g><path style="opacity:1" fill="#fcfcfc" d="M 248.5,265.5 C 266.736,264.868 284.736,265.534 302.5,267.5C 303.821,284.295 308.655,299.961 317,314.5C 329.092,327.125 343.259,329.959 359.5,323C 370.153,318.347 377.32,310.514 381,299.5C 383.584,289.994 385.084,280.327 385.5,270.5C 387.5,270.5 389.5,270.5 391.5,270.5C 391.5,290.167 391.5,309.833 391.5,329.5C 389.833,329.5 388.167,329.5 386.5,329.5C 386.737,325.727 386.237,322.06 385,318.5C 384.044,317.106 382.711,316.439 381,316.5C 373.871,320.27 366.704,324.103 359.5,328C 341.29,333.633 322.957,333.966 304.5,329C 279.791,328.177 255.124,328.343 230.5,329.5C 229.548,327.955 229.215,326.288 229.5,324.5C 234.821,325.021 239.821,324.021 244.5,321.5C 246.98,318.639 247.98,315.306 247.5,311.5C 248.496,296.342 248.83,281.009 248.5,265.5 Z"/></g>
<g><path style="opacity:1" fill="#404c58" d="M 218.5,266.5 C 228.319,265.506 238.319,265.173 248.5,265.5C 248.83,281.009 248.496,296.342 247.5,311.5C 247.5,296.5 247.5,281.5 247.5,266.5C 237.833,266.5 228.167,266.5 218.5,266.5 Z"/></g>
</svg>
